<?xml version="1.0" encoding="UTF-8"?>
<svg version="1.1" xmlns="http://www.w3.org/2000/svg" width="1007" height="1007">
<path d="M0 0 C2.70506286 -0.00346364 5.41010071 -0.00811139 8.11515665 -0.01418173 C13.95794507 -0.02492884 19.80065008 -0.02474296 25.64344215 -0.01704025 C34.33237569 -0.00561695 43.02123982 -0.01153305 51.710173 -0.02066517 C67.23531707 -0.0364067 82.76042395 -0.03511552 98.2855715 -0.02642844 C111.87237655 -0.01886383 125.45916801 -0.01692 139.04597473 -0.02049637 C140.40100292 -0.0208401 140.40100292 -0.0208401 141.78340541 -0.02119078 C145.45095969 -0.02212489 149.11851396 -0.0230801 152.78606823 -0.02407007 C187.14836509 -0.03323469 221.51063836 -0.02494636 255.87293158 -0.00877938 C286.36154873 0.00545606 316.85012829 0.00418212 347.33874512 -0.01016235 C381.64061036 -0.02624719 415.94245477 -0.03258458 450.24432325 -0.02332556 C453.90496285 -0.0223635 457.56560246 -0.02142497 461.22624207 -0.02049637 C462.57812794 -0.02014052 462.57812794 -0.02014052 463.95732464 -0.01977748 C477.53127331 -0.0163737 491.10520687 -0.02033973 504.67915344 -0.02793503 C520.12264556 -0.03653366 535.56609487 -0.034324 551.00958169 -0.0180928 C559.63895658 -0.00932096 568.26823864 -0.00865499 576.89761101 -0.02003132 C582.67701742 -0.02680631 588.45635011 -0.02248639 594.23574568 -0.00951701 C597.5183032 -0.00244782 600.80064393 -0.0014885 604.08320123 -0.01073496 C639.66364372 -0.10320887 672.17075982 6.39835071 703.6361084 23.38095093 C704.24825195 23.70708374 704.86039551 24.03321655 705.49108887 24.36923218 C714.11078496 28.99095441 722.00585746 34.25680181 729.6361084 40.38095093 C730.14996094 40.7918396 730.66381348 41.20272827 731.1932373 41.62606812 C768.75932365 71.87768733 795.80513193 115.41358207 802.35835421 163.70103574 C803.39462905 173.69954808 803.05245262 183.84488803 803.03051758 193.88265991 C803.03375778 196.66376309 803.0414849 199.44484997 803.04897547 202.22594452 C803.06281906 208.25044731 803.06564145 214.27487501 803.06101608 220.29939079 C803.05415547 229.25878518 803.06447786 238.21810414 803.07797364 247.17748804 C803.10283232 264.11460433 803.1074051 281.051689 803.10550767 297.98882061 C803.10413239 311.07363663 803.10796303 324.15844173 803.11543274 337.24325562 C803.1164831 339.12592979 803.11753071 341.00860397 803.1185756 342.89127815 C803.11909495 343.82589626 803.11961429 344.76051437 803.12014937 345.72345424 C803.12066951 346.6598251 803.12118966 347.59619596 803.12172556 348.5609417 C803.12224955 349.4989324 803.12277354 350.4369231 803.12331341 351.40333777 C803.13788915 377.77192328 803.14618262 404.14050479 803.14156342 430.50909424 C803.14139146 431.50237218 803.14121951 432.49565012 803.14104234 433.5190274 C803.14015351 438.55285505 803.1392087 443.5866827 803.13824433 448.62051034 C803.1380533 449.6201649 803.13786226 450.61981947 803.13766544 451.64976659 C803.13727835 453.67131032 803.13688802 455.69285404 803.13649447 457.71439776 C803.13052713 489.15552499 803.14595404 520.59657858 803.17810059 552.03768921 C803.21422546 587.39943167 803.23350363 622.76112745 803.22856188 658.12288952 C803.22809194 661.89796638 803.22768168 665.67304324 803.22731018 669.44812012 C803.22720779 670.37757061 803.22710541 671.3070211 803.22699992 672.26463676 C803.22580801 686.25979962 803.23773413 700.25491181 803.25645447 714.25006104 C803.27775313 730.17999101 803.28147873 746.10981513 803.26215488 762.03974992 C803.25187595 770.93958852 803.25517705 779.83916842 803.27868573 788.73898329 C803.29303312 794.70267705 803.28881324 800.6661816 803.27023997 806.62986295 C803.26019581 810.01550091 803.26030464 813.40023694 803.27756065 816.78590381 C803.4606108 855.35800966 793.16614356 892.68547136 770.6361084 924.38095093 C769.89618652 925.42380249 769.15626465 926.46665405 768.3939209 927.54110718 C764.16961876 933.32211581 759.67897267 938.74597296 754.8236084 944.00595093 C752.09412072 946.96939469 749.47129948 950.02012687 746.85095215 953.08016968 C719.2366875 981.76588727 674.16415214 1005.68769409 633.8120119 1006.63510126 C631.74269801 1006.64710345 629.67330366 1006.64853057 627.60396862 1006.64101315 C626.4489191 1006.64481882 625.29386958 1006.64862449 624.10381857 1006.65254548 C620.92012601 1006.6610291 617.73658089 1006.66069198 614.55288454 1006.65649012 C611.08054657 1006.65411072 607.60823515 1006.66330997 604.13590747 1006.67097431 C598.05723276 1006.68278875 591.97858801 1006.68718836 585.89990234 1006.68665314 C576.85997349 1006.68585808 567.82008233 1006.69642859 558.78016358 1006.70906871 C540.75104815 1006.73377787 522.72194196 1006.74258825 504.69281192 1006.74760519 C503.29305706 1006.74799696 503.29305706 1006.74799696 501.86502433 1006.74839664 C500.92992522 1006.74865691 499.99482612 1006.74891718 499.03139068 1006.74918534 C488.6573933 1006.7522707 478.28339846 1006.75877658 467.90940285 1006.76539803 C436.55935001 1006.78504354 405.20929992 1006.80144896 373.85924053 1006.80427456 C372.85696777 1006.80436862 371.85469501 1006.80446268 370.82205035 1006.80455959 C366.76048771 1006.80493806 362.69892508 1006.80530206 358.63736244 1006.80566257 C355.58054794 1006.80593429 352.52373344 1006.80621097 349.46691895 1006.80648804 C347.95178254 1006.80662007 347.95178254 1006.80662007 346.40603732 1006.80675477 C314.68379074 1006.80965882 282.96160516 1006.83174378 251.23937988 1006.86801147 C215.57775068 1006.90878226 179.91616304 1006.93243346 144.25450927 1006.93273407 C140.4479353 1006.93283089 136.64136134 1006.9329976 132.83478737 1006.93321419 C131.89755378 1006.9332583 130.96032018 1006.93330242 129.99468557 1006.93334787 C114.94400236 1006.93446544 99.89338049 1006.95184111 84.842717 1006.97503351 C69.70079541 1006.99793273 54.55895625 1007.0020648 39.41702368 1006.98748421 C30.43458077 1006.97936332 21.45239841 1006.98491453 12.46998737 1007.01066506 C6.45361441 1007.02651284 0.43742472 1007.0238433 -5.57894417 1007.00675833 C-8.99640318 1006.99755844 -12.41296139 1006.99859703 -15.83044282 1007.0167244 C-67.76448217 1007.27426491 -113.24840367 985.78142175 -150.1763916 949.81845093 C-172.39361326 926.94537033 -188.55398711 898.26542774 -197.3013916 867.69345093 C-197.57169189 866.75823608 -197.84199219 865.82302124 -198.1204834 864.85946655 C-203.1847374 846.03333891 -203.80014281 827.35749854 -203.75157166 807.96731567 C-203.75409409 805.23240886 -203.76111194 802.49751744 -203.76789147 799.7626183 C-203.78018092 793.84836897 -203.78150454 787.93419907 -203.77534103 782.01994133 C-203.76619982 773.22460048 -203.77432199 764.42933229 -203.78563227 755.63399698 C-203.80524463 739.91871115 -203.80765703 724.2034584 -203.80243707 708.48816325 C-203.7978706 694.73252437 -203.79849065 680.97689854 -203.80427742 667.22126007 C-203.8050343 665.37234557 -203.80579028 663.52343107 -203.80654537 661.67451657 C-203.80769063 658.88797568 -203.80884051 656.10143479 -203.81000461 653.3148939 C-203.82070136 627.42606774 -203.82544337 601.53724591 -203.81753445 575.64841843 C-203.81723727 574.67360764 -203.8169401 573.69879685 -203.81663392 572.69444633 C-203.81418527 564.77954438 -203.81157354 556.86464249 -203.80894979 548.94974059 C-203.79884976 518.08548144 -203.80720149 487.22127671 -203.83044434 456.35702515 C-203.8565495 421.6361817 -203.86935616 386.915371 -203.86225659 352.19451737 C-203.86154059 348.4883132 -203.86086619 344.78210903 -203.86021614 341.07590485 C-203.86004633 340.16342424 -203.85987652 339.25094363 -203.85970157 338.31081209 C-203.85740413 324.5712169 -203.86534897 310.83165225 -203.87850761 297.0920639 C-203.89345629 281.45606784 -203.89421207 265.82014306 -203.8764367 250.18414846 C-203.8669131 241.44853117 -203.86822738 232.71308042 -203.88567139 223.97747445 C-203.8962337 218.12462677 -203.89195938 212.2719047 -203.87619136 206.4190692 C-203.86763728 203.09606524 -203.8672065 199.77364696 -203.88046067 196.45062062 C-203.95732873 175.68661055 -202.2355428 155.32232211 -195.8638916 135.44345093 C-195.53058838 134.38480835 -195.19728516 133.32616577 -194.85388184 132.23544312 C-185.93757598 105.15228917 -170.9636216 80.98731359 -151.3638916 60.38095093 C-150.8369873 59.8214978 -150.31008301 59.26204468 -149.76721191 58.68563843 C-137.13441926 45.3506299 -123.35243676 34.48042248 -107.3638916 25.38095093 C-106.72902832 25.01904663 -106.09416504 24.65714233 -105.44006348 24.28427124 C-91.27970802 16.29096183 -76.81074242 10.38702235 -61.1138916 6.13095093 C-59.85004639 5.77964111 -59.85004639 5.77964111 -58.56066895 5.42123413 C-39.28311598 0.46775198 -19.78614188 -0.05573454 0 0 Z " fill="#000000" transform="translate(204.3638916015625,0.619049072265625)"/>
<path d="M0 0 C1.43513443 0.00040787 1.43513443 0.00040787 2.89926147 0.00082397 C17.44295112 0.01983772 31.79808825 0.4467325 46.25 2.1875 C47.13703613 2.28401855 48.02407227 2.38053711 48.93798828 2.47998047 C64.33834025 4.16227901 79.2325739 7.44036232 94.25 11.1875 C95.31234863 11.44515137 96.37469727 11.70280273 97.46923828 11.96826172 C168.07036907 29.17830018 238.43804661 70.19646983 286.1328125 125.734375 C287.75687341 127.61612824 289.3974446 129.47597712 291.0546875 131.328125 C354.92967014 203.16998732 385.70059622 295.64723763 385.06396484 410.41064453 C383.37828714 437.8724286 378.60845923 466.34170841 370.10400391 492.55371094 C369.13188494 495.55177253 368.19880965 498.56112548 367.26171875 501.5703125 C362.28488352 517.2731635 356.28967093 532.30013836 349.25 547.1875 C348.73920898 548.26950684 348.22841797 549.35151367 347.70214844 550.46630859 C337.44403372 571.99697267 325.39664026 591.99878831 311.25 611.1875 C310.82122559 611.76935059 310.39245117 612.35120117 309.95068359 612.95068359 C297.61810733 629.56573854 283.64849506 644.85150629 269.0625 659.5 C268.31403809 660.25313477 267.56557617 661.00626953 266.79443359 661.78222656 C243.58926 684.92082164 216.10470005 704.46637219 187.33203125 720.05615234 C185.92483102 720.82080594 184.52125198 721.59215573 183.12109375 722.36962891 C159.01999657 735.75134275 133.461676 744.94728089 107.25 753.1875 C106.33250977 753.47882812 105.41501953 753.77015625 104.46972656 754.0703125 C83.09008139 760.77073738 60.4890366 763.94458198 38.25 766.1875 C37.33299316 766.28321289 36.41598633 766.37892578 35.47119141 766.47753906 C24.46303315 767.48171632 13.41967773 767.43022461 2.375 767.4375 C0.78295746 767.43901062 0.78295746 767.43901062 -0.84124756 767.44055176 C-25.21278174 767.42496219 -49.11048322 765.80238576 -73.01708984 760.76318359 C-74.88492966 760.36972582 -76.75521603 759.98775319 -78.62744141 759.61572266 C-92.95973027 756.75395247 -106.77982368 752.75221205 -120.625 748.125 C-121.7735849 747.74190674 -121.7735849 747.74190674 -122.94537354 747.35107422 C-136.96147902 742.65077394 -150.37013321 737.06254875 -163.6875 730.625 C-164.63068588 730.16954803 -164.63068588 730.16954803 -165.59292603 729.70489502 C-196.40164369 714.77873914 -225.20295207 696.03269158 -250.75 673.1875 C-251.47614502 672.54748047 -252.20229004 671.90746094 -252.95043945 671.24804688 C-259.25780025 665.64709539 -265.30186478 659.82188117 -271.26391602 653.85888672 C-272.80923066 652.3157647 -274.36240446 650.78085694 -275.91601562 649.24609375 C-282.31277571 642.88483242 -288.1349913 636.26079145 -293.75 629.1875 C-294.61324737 628.15983161 -295.48163688 627.13641348 -296.359375 626.12109375 C-324.48582707 593.32400821 -344.73195711 554.28060448 -359.70751953 513.98193359 C-360.53713217 511.75810544 -361.38303237 509.54297151 -362.24609375 507.33203125 C-371.23821752 483.59872096 -376.14013213 458.14572409 -379.5 433.0625 C-379.61569336 432.19987549 -379.73138672 431.33725098 -379.85058594 430.44848633 C-381.71997819 415.42942533 -381.98735951 400.36441326 -382 385.25 C-382.00133942 384.29538879 -382.00267883 383.34077759 -382.00405884 382.35723877 C-381.99685748 358.49194917 -380.52505587 334.61930763 -375.75 311.1875 C-375.49911621 309.91132812 -375.49911621 309.91132812 -375.24316406 308.609375 C-362.05924853 242.05527736 -331.03650901 178.60363123 -284.9453125 128.59375 C-283.09914221 126.57018968 -281.30735617 124.51603711 -279.51953125 122.44140625 C-275.6292624 117.98514793 -271.50536305 113.79521932 -267.3125 109.625 C-266.60029297 108.90892578 -265.88808594 108.19285156 -265.15429688 107.45507812 C-260.51688844 102.82609369 -255.72462996 98.44986391 -250.75 94.1875 C-249.77417969 93.33027344 -248.79835937 92.47304687 -247.79296875 91.58984375 C-213.34186887 61.85161663 -173.27760951 39.12084893 -130.75 23.1875 C-129.89277344 22.86056152 -129.03554688 22.53362305 -128.15234375 22.19677734 C-97.42960555 10.54185586 -65.27067341 4.84005257 -32.75 1.1875 C-31.80092773 1.07929932 -30.85185547 0.97109863 -29.87402344 0.85961914 C-19.94407564 -0.12337905 -9.96800519 -0.01060985 0 0 Z " fill="#FCFCFC" transform="translate(502.75,120.8125)"/>
<path d="M0 0 C51.68889336 41.11298157 69.14949741 123.70594163 79.6953125 185.35546875 C79.81946533 186.07589355 79.94361816 186.79631836 80.0715332 187.53857422 C80.71342615 191.4960456 81.00159254 195.28570537 80.8828125 199.29296875 C56.3261766 211.5712867 9.15415212 204.65808865 -17.9296875 204.60546875 C-18.89369728 204.6041457 -19.85770706 204.60282265 -20.85092926 204.6014595 C-47.92804852 204.56165939 -74.79433516 204.1784205 -101.76391602 201.56347656 C-104.60577715 201.28801666 -107.44829832 201.02037315 -110.29101562 200.75390625 C-112.12764574 200.57986524 -113.96423595 200.4054025 -115.80078125 200.23046875 C-117.05392372 200.11167358 -117.05392372 200.11167358 -118.3323822 199.99047852 C-122.94986324 199.54134033 -127.52996032 198.98694471 -132.1171875 198.29296875 C-131.60804746 188.94410428 -130.04642414 179.93388197 -128.1171875 170.79296875 C-127.96679016 170.07063049 -127.81639282 169.34829224 -127.66143799 168.60406494 C-125.18352416 156.73200814 -122.42266831 144.93595306 -119.4921875 133.16796875 C-119.31059082 132.43441162 -119.12899414 131.70085449 -118.94189453 130.94506836 C-108.22062992 87.83200111 -92.28975769 41.99765014 -61.1171875 9.29296875 C-60.56933594 8.67035156 -60.02148438 8.04773438 -59.45703125 7.40625 C-43.08373415 -10.49575788 -19.95271829 -13.64114414 0 0 Z " fill="#000000" transform="translate(523.1171875,153.70703125)"/>
<path d="M0 0 C0.74888489 0.00011959 1.49776978 0.00023918 2.26934814 0.0003624 C36.44281612 0.00726233 70.37661479 0.88023643 104.3125 5.1875 C103.71313192 14.26193279 102.21629424 23.1326472 100.5625 32.0625 C100.42900146 32.78915863 100.29550293 33.51581726 100.15795898 34.26449585 C96.79293912 52.52584136 92.497134 70.32465437 86.97070312 88.05712891 C86.41694941 89.84943414 85.88553783 91.64862054 85.359375 93.44921875 C73.21228501 134.80453876 54.68256317 186.7984388 15.3046875 209.7421875 C5.79595602 214.3351779 -5.45814559 214.95323908 -15.5 211.625 C-45.39862338 198.97558242 -62.7186776 164.38849176 -74.6875 136.1875 C-77.87756597 128.20550898 -80.80374769 120.13075265 -83.67285156 112.02880859 C-84.49278061 109.73277052 -85.33577035 107.45109445 -86.2109375 105.17578125 C-89.9500671 95.30400278 -92.44717624 85.10597006 -95.01171875 74.88037109 C-95.5939881 72.5601287 -96.18485398 70.24242106 -96.78125 67.92578125 C-100.60023707 52.94241666 -104.04650289 37.86563938 -107 22.6875 C-107.17144531 21.82165283 -107.34289062 20.95580566 -107.51953125 20.0637207 C-108.34667319 15.7052858 -108.88300647 11.64794391 -108.6875 7.1875 C-106.17965928 5.93357964 -104.07488558 5.80570738 -101.28125 5.50390625 C-100.15783203 5.38192871 -99.03441406 5.25995117 -97.87695312 5.13427734 C-96.05067383 4.94406006 -96.05067383 4.94406006 -94.1875 4.75 C-92.30708008 4.55204834 -92.30708008 4.55204834 -90.38867188 4.35009766 C-81.99593498 3.48489964 -73.59929958 2.71639597 -65.1875 2.0625 C-64.22521484 1.98717041 -63.26292969 1.91184082 -62.27148438 1.83422852 C-59.07790573 1.59747973 -55.88351728 1.38873813 -52.6875 1.1875 C-52.03776215 1.14406464 -51.38802429 1.10062927 -50.71859741 1.05587769 C-33.82724515 -0.04883564 -16.91915991 -0.01195719 0 0 Z " fill="#000000" transform="translate(499.6875,650.8125)"/>
<path d="M0 0 C78.21 0 156.42 0 237 0 C237 31.74397146 237 31.74397146 236.25 44.0625 C236.1876416 45.14334869 236.1876416 45.14334869 236.12402344 46.24603271 C235.35868387 59.39605469 234.23226278 72.51133069 233 85.625 C232.91641235 86.52550079 232.83282471 87.42600159 232.7467041 88.35379028 C231.90394951 97.34087162 231.03484186 106.18840802 229 115 C220.90906718 114.55496222 212.82410893 114.07808428 204.74555969 113.44354248 C150.03243612 109.17477545 93.63057067 108.20084447 39 114 C38.31131836 114.07214722 37.62263672 114.14429443 36.91308594 114.21862793 C29.68769518 114.97944214 22.47232137 115.7999713 15.27197266 116.7722168 C12.83413615 117.01662916 10.44843168 117.0381637 8 117 C2.97119075 77.93046255 0 39.45084634 0 0 Z " fill="#000000" transform="translate(379,517)"/>
<path d="M0 0 C9.83275156 0.36324815 19.59709394 1.02128424 29.38476562 2.04248047 C93.36945917 8.68906715 157.05764406 6.51127907 221 1 C222.32192108 7.1917925 223.3863738 13.31617817 224 19.6171875 C224.12100067 20.81541893 224.12100067 20.81541893 224.2444458 22.03785706 C224.50399922 24.64955458 224.75337488 27.26205138 225 29.875 C225.08648804 30.77985138 225.17297607 31.68470276 225.26208496 32.61697388 C226.64054647 47.20749552 227.59553566 61.79734822 228.25 76.4375 C228.29092773 77.33523132 228.33185547 78.23296265 228.37402344 79.15789795 C228.49024958 81.77040473 228.59861319 84.3830939 228.703125 86.99609375 C228.73416321 87.72719864 228.76520142 88.45830353 228.79718018 89.21156311 C229.12435896 98.14795047 229 107.04125714 229 116 C150.79 116 72.58 116 -8 116 C-8 84.7203125 -8 84.7203125 -7.1875 72.9375 C-7.0987219 71.56951402 -7.01018829 70.20151216 -6.921875 68.83349609 C-5.63531401 49.38109778 -3.85303075 29.95563484 -1.875 10.5625 C-1.76188477 9.43642334 -1.76188477 9.43642334 -1.64648438 8.28759766 C-1.33454946 5.36145145 -0.93456642 2.80369926 0 0 Z " fill="#000000" transform="translate(387,376)"/>
<path d="M0 0 C41.91 0 83.82 0 127 0 C127.33 10.89 127.66 21.78 128 33 C128.38842138 40.59029798 128.80044882 48.16861991 129.3125 55.75 C129.37458649 56.69873993 129.43667297 57.64747986 129.50064087 58.62496948 C130.51666186 74.04370752 131.94159214 89.39528257 133.72973633 104.74316406 C133.81426056 105.47093552 133.89878479 106.19870697 133.98587036 106.9485321 C134.2132347 108.88813568 134.44658243 110.82703531 134.68041992 112.76586914 C134.95476754 115.54225026 135.06490057 118.21388771 135 121 C133.75734375 121.1959375 132.5146875 121.391875 131.234375 121.59375 C100.20847209 126.65519151 68.93318781 133.41332036 39.28125 143.95703125 C35.23659 145.24265532 31.15275445 146.1395036 27 147 C17.65600437 121.67920738 10.52632414 96.13575073 6.39257812 69.43115234 C6.03732206 67.23112753 5.63674305 65.0489939 5.203125 62.86328125 C3.41364955 53.68765459 2.29185083 44.48408485 1.3125 35.1875 C1.18093506 33.9905249 1.04937012 32.7935498 0.91381836 31.56030273 C-0.14905284 20.89656672 0 10.88150127 0 0 Z " fill="#000000" transform="translate(228,517)"/>
<path d="M0 0 C3.56309392 0.86048646 6.97025048 1.99309632 10.4375 3.1875 C37.52612938 12.32676355 65.35922323 18.43309595 93.37872314 23.88734436 C98.27271632 24.8445162 103.14036561 25.88233888 108 27 C107.7123166 30.45867601 107.41902982 33.91685821 107.125 37.375 C107.04636719 38.32117188 106.96773437 39.26734375 106.88671875 40.2421875 C106.43139259 45.56600109 105.90748132 50.87439172 105.28669739 56.18107605 C104.08577793 66.50268097 103.28682717 76.82944743 102.62231445 87.19848633 C102.440984 90.00850954 102.24925229 92.81768363 102.05664062 95.62695312 C100.93895423 112.76676181 100.52130571 129.79691141 100 147 C58.09 147 16.18 147 -27 147 C-27 128.22334835 -27 128.22334835 -26.25 119.875 C-26.11476929 118.36486328 -26.11476929 118.36486328 -25.97680664 116.82421875 C-25.66923137 113.54740711 -25.33903793 110.27370049 -25 107 C-24.8870459 105.88915039 -24.7740918 104.77830078 -24.65771484 103.63378906 C-20.92335275 68.42980265 -12.75549072 33.05196338 0 0 Z " fill="#000000" transform="translate(255,345)"/>
<path d="M0 0 C41.91 0 83.82 0 127 0 C127 23.36501678 127 23.36501678 125.875 33 C125.74593262 34.14734619 125.61686523 35.29469238 125.48388672 36.47680664 C122.8387103 58.77165389 119.24371449 81.13041035 113.54833984 102.85791016 C113.02228502 104.91294356 112.54363329 106.97261505 112.08203125 109.04296875 C109.39811318 120.72797447 105.25289306 131.80752453 101 143 C95.27170552 141.79243149 89.66311846 140.38777229 84.0625 138.6875 C82.552276 138.24023436 81.04185326 137.7936393 79.53125 137.34765625 C77.35719069 136.70326875 75.18431498 136.05628319 73.015625 135.39404297 C46.68327785 127.37257848 19.16897715 123.09864413 -8 119 C-7.50662055 111.7800274 -6.87893433 104.58825985 -6.09765625 97.39453125 C-4.37388264 81.48898847 -2.74446311 65.5991917 -1.8125 49.625 C-1.7410376 48.43237549 -1.6695752 47.23975098 -1.59594727 46.01098633 C-0.76654742 30.68468249 -0.4649191 15.3423302 0 0 Z " fill="#000000" transform="translate(640,517)"/>
<path d="M0 0 C2.02738593 4.85965167 3.46774233 9.96473525 5 15 C5.26474121 15.8672168 5.52948242 16.73443359 5.80224609 17.62792969 C15.01007037 48.19855281 21.11007327 79.67033936 24.25 111.4375 C24.33032471 112.21569092 24.41064941 112.99388184 24.4934082 113.7956543 C25.32191632 123.22945856 25 132.44689519 25 142 C-16.91 142 -58.82 142 -102 142 C-102.66 124.84 -103.32 107.68 -104 90 C-104.75580816 79.76715812 -105.54903055 69.57860741 -106.5625 59.375 C-106.78711473 56.99882114 -107.01041259 54.62251745 -107.23242188 52.24609375 C-108.11798249 42.82704244 -109.05520052 33.41326725 -110 24 C-104.89455145 22.74603018 -99.91113428 21.84525135 -94.6875 21.25 C-76.0828361 18.87533436 -57.69075704 14.07421624 -39.49121094 9.60888672 C-36.92585132 8.98187703 -34.3576489 8.36755026 -31.7890625 7.75390625 C-22.59995266 5.53385182 -13.66526538 3.04143019 -4.7734375 -0.1796875 C-2 -1 -2 -1 0 0 Z " fill="#000000" transform="translate(742,350)"/>
<path d="M0 0 C8.4423173 -0.38459445 16.47884482 1.06235189 24.75 2.5625 C25.49111023 2.69460876 26.23222046 2.82671753 26.99578857 2.96282959 C41.15014287 5.49530705 55.08026647 8.68654195 69.01416016 12.2421875 C71.60305753 12.89925516 74.19515439 13.53560792 76.79296875 14.15625 C85.99881648 16.36556724 94.99947019 19.07961533 104 22 C94.28701574 52.4806947 74.8179789 81.17748097 55 106 C54.27554688 106.9178125 53.55109375 107.835625 52.8046875 108.78125 C40.41608889 124.23369557 26.59135301 138.77066381 11 151 C9.90785637 151.88157781 8.81675404 152.76444681 7.7265625 153.6484375 C-11.37799917 169.04667076 -44.38448419 195 -70 195 C-68.61583313 191.89314718 -66.79851652 189.26409531 -64.77758789 186.53735352 C-25.44465012 133.43450518 -10.35143602 64.09899749 0 0 Z " fill="#010101" transform="translate(628,660)"/>
<path d="M0 0 C7.17243413 1.36652968 13.59199342 3.60542697 20.3125 6.4375 C21.88257813 7.09794312 21.88257813 7.09794312 23.484375 7.77172852 C49.11237223 18.78205975 72.03646967 34.47183447 92.33984375 53.52734375 C94.49351994 55.52921897 96.67980983 57.43187709 98.9375 59.3125 C108.63312011 67.73556997 117.12696831 77.90052323 125 88 C125.44134277 88.56348145 125.88268555 89.12696289 126.33740234 89.70751953 C174 150.86662239 174 150.86662239 174 172 C148.04440264 181.13792566 121.30083729 187.21022596 94.1875 191.75 C92.30115845 192.06626343 92.30115845 192.06626343 90.37670898 192.38891602 C83.59586636 193.4962796 76.8450173 194.41023174 70 195 C69.82549316 193.83799072 69.65098633 192.67598145 69.47119141 191.47875977 C67.75443282 180.22489027 65.73982348 169.072629 63.375 157.9375 C63.20359497 157.12840179 63.03218994 156.31930359 62.85559082 155.48568726 C51.54499053 102.3856878 35.94168331 45.62195142 1.25 2.64453125 C0 1 0 1 0 0 Z " fill="#010101" transform="translate(558,155)"/>
<path d="M0 0 C-0.59425781 0.71800781 -1.18851563 1.43601563 -1.80078125 2.17578125 C-9.33653787 11.50122236 -15.2151675 21.52324199 -21 32 C-21.40105957 32.71172363 -21.80211914 33.42344727 -22.21533203 34.15673828 C-43.31730139 71.62313877 -53.96366171 114.28116038 -63 156 C-63.21285645 156.97324219 -63.42571289 157.94648438 -63.64501953 158.94921875 C-66.04155744 169.92102712 -68.12847114 180.92678759 -70 192 C-104.63937616 189.12363552 -139.37551129 178.58643755 -172 167 C-170.2343132 161.21260861 -168.14844387 155.95998266 -165.1875 150.6875 C-164.4659247 149.37453389 -163.74588627 148.06072205 -163.02734375 146.74609375 C-162.67784668 146.10784668 -162.32834961 145.46959961 -161.96826172 144.81201172 C-160.64274459 142.33142974 -159.45169881 139.79246661 -158.25 137.25 C-146.29391188 113.17625501 -129.10831636 90.39304193 -110.6953125 70.8828125 C-108.59341098 68.63469174 -106.59251555 66.36299607 -104.625 64 C-81.16389631 37.01689043 -47.47679699 15.91961921 -14.5625 2.8125 C-13.57330566 2.41361572 -12.58411133 2.01473145 -11.56494141 1.60375977 C-10.6372998 1.24596436 -9.7096582 0.88816895 -8.75390625 0.51953125 C-7.93220947 0.20089111 -7.1105127 -0.11774902 -6.26391602 -0.44604492 C-3.76556894 -1.05736267 -2.40151124 -0.83906565 0 0 Z " fill="#010101" transform="translate(437,156)"/>
<path d="M0 0 C0.24645264 1.28350342 0.49290527 2.56700684 0.74682617 3.8894043 C1.68342697 8.76042416 2.62617242 13.63023959 3.57055664 18.49975586 C3.97451535 20.58700906 4.3769191 22.67456394 4.77758789 24.76245117 C8.33780079 43.30504056 12.08381492 61.79823715 17.8125 79.8125 C18.15087891 80.89160645 18.48925781 81.97071289 18.83789062 83.08251953 C19.88136019 86.39182249 20.9383833 89.69647827 22 93 C22.33435059 94.04687988 22.66870117 95.09375977 23.01318359 96.17236328 C33.32775352 128.32658493 45.66954554 163.49023382 68.453125 189.1015625 C70 191 70 191 70 193 C22.46645453 179.3984395 -20.53341559 147.65708742 -51 109 C-51.88267458 107.93911877 -52.76823778 106.88063614 -53.65625 105.82421875 C-102 47.78195349 -102 47.78195349 -102 24 C-73.35294243 14.12887921 -44.04827065 6.99836399 -14.27539062 1.4296875 C-12.72531493 1.13696934 -11.18188912 0.80718383 -9.64648438 0.4453125 C-6.40364291 -0.10034643 -3.28212047 -0.0643553 0 0 Z " fill="#010101" transform="translate(367,662)"/>
<path d="M0 0 C23.76 0 47.52 0 72 0 C72 9.82901025 71.99135838 19.17833359 70.9375 28.875 C70.81101074 30.04192383 70.68452148 31.20884766 70.55419922 32.41113281 C69.38379361 42.29023756 67.6186016 52.00804263 65.625 61.75 C65.48424042 62.44671814 65.34348083 63.14343628 65.19845581 63.86126709 C63.34984363 72.91674883 60.99200692 81.69293138 58.125 90.47924805 C57.10987167 93.65615031 56.21038112 96.83447212 55.375 100.0625 C54.25962905 104.24514107 52.77428772 108.04197354 51 112 C50.28659161 113.89392941 49.5790072 115.79005593 48.875 117.6875 C43.64227774 131.30499976 37.41775261 144.43815359 30.6875 157.375 C30.18404053 158.34356934 29.68058105 159.31213867 29.16186523 160.31005859 C26.66091986 165.0564697 24.08925475 169.61193744 21 174 C17.95938218 173.36097082 15.5420809 172.34289535 12.82421875 170.84765625 C11.59771606 170.18407104 11.59771606 170.18407104 10.34643555 169.50708008 C9.46898682 169.03036865 8.59153809 168.55365723 7.6875 168.0625 C-3.59012148 162.02837779 -15.20592123 156.93106822 -27 152 C-26.0449073 147.14494545 -24.92514717 142.6049126 -23.16015625 137.98046875 C-20.64647685 131.28702601 -18.82754431 124.43053722 -17.01782227 117.52270508 C-16.4424304 115.33127783 -15.8555697 113.14315376 -15.26757812 110.95507812 C-13.02660479 102.5211407 -11.16582828 94.09071244 -9.63696289 85.49975586 C-9.13661142 82.75060355 -8.57995702 80.04592602 -7.9375 77.328125 C-6.60941919 71.52737536 -5.82969892 65.6388092 -5 59.75 C-4.82557373 58.51217773 -4.65114746 57.27435547 -4.47143555 55.99902344 C-1.89172558 37.3247695 -0.78757485 18.90179636 0 0 Z " fill="#010101" transform="translate(791,517)"/>
<path d="M0 0 C26.69047287 44.99492148 43.23962329 93.11250783 50 145 C50.10747559 145.75925781 50.21495117 146.51851562 50.32568359 147.30078125 C51.43403739 156.26045799 51 164.81369699 51 174 C27.24 174 3.48 174 -21 174 C-21.66 163.11 -22.32 152.22 -23 141 C-23.9024548 131.97545198 -24.83482707 122.98934723 -26 114 C-26.155896 112.7629834 -26.155896 112.7629834 -26.31494141 111.50097656 C-29.85570193 84.13686659 -36.91486213 56.52538334 -46.26000977 30.5925293 C-48.10722687 25.32168062 -48.10722687 25.32168062 -47 22 C-45.30444336 20.96020508 -45.30444336 20.96020508 -43.08984375 20.01953125 C-42.27233643 19.66407227 -41.4548291 19.30861328 -40.61254883 18.94238281 C-39.72978271 18.56952148 -38.8470166 18.19666016 -37.9375 17.8125 C-36.10561728 17.01436117 -34.27490109 16.21354002 -32.4453125 15.41015625 C-31.52782227 15.00812988 -30.61033203 14.60610352 -29.66503906 14.19189453 C-25.83012001 12.47679057 -22.06415958 10.63924319 -18.3125 8.75 C-17.66128174 8.42233643 -17.01006348 8.09467285 -16.33911133 7.75708008 C-12.02197468 5.56365566 -7.7777434 3.26338609 -3.6015625 0.8125 C-2 0 -2 0 0 0 Z " fill="#010101" transform="translate(812,318)"/>
<path d="M0 0 C3.72219197 1.4198577 7.21822111 3.08508217 10.74609375 4.93359375 C11.83083984 5.50013672 12.91558594 6.06667969 14.03320312 6.65039062 C15.15662109 7.24013672 16.28003906 7.82988281 17.4375 8.4375 C19.66515398 9.60326711 21.8930121 10.76864423 24.12109375 11.93359375 C25.1052124 12.44978271 26.08933105 12.96597168 27.10327148 13.49780273 C30.0545345 15.02828072 33.0229312 16.5204385 36 18 C34.23168462 24.87649686 32.16838851 31.58852754 29.84082031 38.29541016 C25.30963373 51.3767655 21.59996117 64.46600072 18.65869141 77.99072266 C18.03099322 80.85840531 17.36726274 83.71571759 16.69921875 86.57421875 C10.58812922 113.75310199 7.65610216 142.36608215 7.140625 170.19921875 C7 174 7 174 6 175 C4.18944975 175.09376053 2.37522799 175.1174411 0.56225586 175.11352539 C-1.17943626 175.11341209 -1.17943626 175.11341209 -2.95631409 175.11329651 C-4.85159096 175.10555458 -4.85159096 175.10555458 -6.78515625 175.09765625 C-8.07111191 175.0962413 -9.35706757 175.09482635 -10.68199158 175.09336853 C-14.10643443 175.08954418 -17.53083509 175.07971462 -20.95526123 175.06866455 C-24.44738189 175.05844864 -27.93950934 175.05387053 -31.43164062 175.04882812 C-38.28777778 175.03809227 -45.14388687 175.02101684 -52 175 C-52.0545919 169.47387151 -52.03219444 164.03404701 -51.44921875 158.53125 C-51.3294165 157.39220215 -51.20961426 156.2531543 -51.08618164 155.07958984 C-50.9546167 153.8983252 -50.82305176 152.71706055 -50.6875 151.5 C-50.55142334 150.26330566 -50.41534668 149.02661133 -50.27514648 147.75244141 C-48.56742279 132.65557336 -45.97309134 117.9012632 -42.49414062 103.11572266 C-42.03915723 101.1676564 -41.60454618 99.21486177 -41.171875 97.26171875 C-33.42274801 63.9052494 -19.76401493 28.19576191 0 0 Z " fill="#020202" transform="translate(197,318)"/>
<path d="M0 0 C19.47 0 38.94 0 59 0 C59.20625 5.07375 59.4125 10.1475 59.625 15.375 C60.33899197 29.71701279 61.81541564 43.85275236 63.875 58.0625 C64.05932587 59.35193512 64.05932587 59.35193512 64.24737549 60.66741943 C66.95168726 79.39505853 70.98492961 97.7124066 75.8125 116 C76.027995 116.82263336 76.24348999 117.64526672 76.46551514 118.49282837 C79.36485692 129.52192022 82.52546148 140.30592221 86.8203125 150.88671875 C88 154 88 154 88 157 C87.28457031 157.33733154 86.56914062 157.67466309 85.83203125 158.0222168 C82.55224932 159.57221076 79.27612343 161.12978914 76 162.6875 C74.31197266 163.48317383 74.31197266 163.48317383 72.58984375 164.29492188 C67.68969145 166.63037458 62.95117463 168.93081758 58.4375 171.95703125 C55 174 55 174 52.91503906 173.81738281 C49.57636649 172.3923604 48.36967229 169.01512779 46.75 165.9375 C46.16520874 164.85927979 46.16520874 164.85927979 45.56860352 163.75927734 C44.36097475 161.51524528 43.17685964 159.26030202 42 157 C41.64856934 156.32888184 41.29713867 155.65776367 40.93505859 154.96630859 C33.36125039 140.41136176 26.62288903 125.41536654 21 110 C20.74395996 109.32404785 20.48791992 108.6480957 20.22412109 107.95166016 C11.80534593 85.69958564 6.4607434 62.51296639 3 39 C2.88817383 38.24750977 2.77634766 37.49501953 2.66113281 36.71972656 C0.89808399 24.47849483 0.56412433 12.41073531 0 0 Z " fill="#010101" transform="translate(145,517)"/>
<path d="M0 0 C3.70975829 0.61669467 6.82636617 1.66800953 10.24609375 3.22265625 C11.24253906 3.67535889 12.23898437 4.12806152 13.265625 4.59448242 C14.83570313 5.32115112 14.83570313 5.32115112 16.4375 6.0625 C17.50613281 6.55403564 18.57476563 7.04557129 19.67578125 7.55200195 C27.71611436 11.29657295 35.442867 15.35662074 43 20 C43 23.39517839 42.57560806 23.92850841 40.578125 26.51953125 C40.05355713 27.2048291 39.52898926 27.89012695 38.98852539 28.59619141 C38.41481201 29.32757324 37.84109863 30.05895508 37.25 30.8125 C36.66017334 31.57224121 36.07034668 32.33198242 35.46264648 33.11474609 C22.20044765 50.07064197 7.75051609 66.89578771 -8.609375 80.9453125 C-10.40371339 82.4875053 -12.18242209 84.04791375 -13.953125 85.6171875 C-34.60426711 103.81066793 -57.65674918 119.20498789 -82 132 C-82.82467773 132.43425293 -83.64935547 132.86850586 -84.49902344 133.31591797 C-86.99267889 134.61991777 -89.49390107 135.90759768 -92 137.1875 C-93.15846436 137.78643066 -93.15846436 137.78643066 -94.34033203 138.39746094 C-96.19647895 139.32826218 -98.09530467 140.17307312 -100 141 C-100.66 140.67 -101.32 140.34 -102 140 C-101.17242188 139.31679688 -100.34484375 138.63359375 -99.4921875 137.9296875 C-91.17193314 130.94581009 -83.31807044 123.53931741 -75.625 115.875 C-74.71089355 114.96991699 -73.79678711 114.06483398 -72.85498047 113.13232422 C-66.81052577 107.06154636 -61.33257379 100.69919352 -56 94 C-54.99939948 92.79152609 -53.99595433 91.58539536 -52.98828125 90.3828125 C-31.09511888 63.89152528 -12.43702774 32.04015242 0 0 Z " fill="#020202" transform="translate(754,691)"/>
<path d="M0 0 C7.25334593 2.75126915 14.09687804 6.48076136 21 10 C21.6276123 10.31743164 22.25522461 10.63486328 22.90185547 10.96191406 C44.44977824 21.90707494 64.28907652 35.76276835 83 51 C83.55139648 51.44553223 84.10279297 51.89106445 84.67089844 52.35009766 C93.92853328 59.89466282 102.41725336 68.209848 110.875 76.625 C111.40920563 77.1539386 111.94341125 77.6828772 112.49380493 78.22784424 C119.46712512 85.14794526 125.9144325 92.27029324 132 100 C133.13171413 101.40583282 134.26442673 102.81086284 135.3984375 104.21484375 C136.39125544 105.45522482 137.38346254 106.6960951 138.375 107.9375 C138.88160156 108.56978516 139.38820313 109.20207031 139.91015625 109.85351562 C140.86754004 111.05087356 141.82070085 112.25162685 142.76855469 113.45654297 C143.78367452 114.72886406 144.84332581 115.965522 145.9140625 117.19140625 C147 119 147 119 146.85327148 120.93994141 C145.66277675 123.81416016 144.18177509 124.36661712 141.43359375 125.76953125 C140.48000977 126.26291992 139.52642578 126.75630859 138.54394531 127.26464844 C137.51881836 127.77543945 136.49369141 128.28623047 135.4375 128.8125 C134.40077148 129.34004883 133.36404297 129.86759766 132.29589844 130.41113281 C126.1774932 133.49586819 120.01589545 136.47630289 113.75 139.25 C113.10216553 139.53721924 112.45433105 139.82443848 111.78686523 140.12036133 C109.00306658 141.30997053 107.06373825 142 104 142 C103.48953125 140.82308594 102.9790625 139.64617187 102.453125 138.43359375 C90.9089847 112.12388132 77.24837734 87.02602007 60 64 C59.59716797 63.45972168 59.19433594 62.91944336 58.77929688 62.36279297 C42.25895704 40.27240195 23.69193324 19.59702021 1.90625 2.6015625 C1.2771875 2.07304687 0.648125 1.54453125 0 1 C0 0.67 0 0.34 0 0 Z " fill="#020202" transform="translate(650,176)"/>
<path d="M0 0 C0.32162109 0.67877197 0.64324219 1.35754395 0.97460938 2.05688477 C15.91616211 33.53592285 32.32084519 63.33457737 55 90 C55.90941247 91.09458847 56.81823286 92.18966904 57.7265625 93.28515625 C65.02125428 102.01149374 72.85249672 110.06944207 81 118 C80.01 118.495 80.01 118.495 79 119 C76.49507098 117.64061779 74.13962683 116.22994861 71.75 114.6875 C71.03416748 114.23181641 70.31833496 113.77613281 69.58081055 113.30664062 C62.54102707 108.78301001 55.71340038 103.99296921 49 99 C48.17870605 98.38922607 48.17870605 98.38922607 47.34082031 97.76611328 C26.36926167 82.07789389 5.6693626 64.27076811 -11 44 C-11.70141113 43.15332764 -11.70141113 43.15332764 -12.41699219 42.28955078 C-19.22958761 34.05438604 -25.86087481 25.75428124 -32 17 C-29.14728756 13.89755516 -26.42375032 11.94491413 -22.68359375 10.01953125 C-21.67232422 9.49552734 -20.66105469 8.97152344 -19.61914062 8.43164062 C-18.56919922 7.89732422 -17.51925781 7.36300781 -16.4375 6.8125 C-15.38369141 6.26658203 -14.32988281 5.72066406 -13.24414062 5.15820312 C-3.22815017 0 -3.22815017 0 0 0 Z " fill="#030303" transform="translate(243,696)"/>
<path d="M0 0 C0.99 0.495 0.99 0.495 2 1 C0.71416016 2.2684375 0.71416016 2.2684375 -0.59765625 3.5625 C-6.62163287 9.52740073 -12.59548456 15.45943336 -18 22 C-18.4424707 22.52867676 -18.88494141 23.05735352 -19.34082031 23.60205078 C-43.36491639 52.35487166 -62.43008821 83.95064745 -78 118 C-82.83051193 117.34517618 -86.83927861 115.39649336 -91.1875 113.3125 C-91.93765381 112.95671875 -92.68780762 112.6009375 -93.46069336 112.234375 C-99.18141285 109.48280816 -104.67078876 106.45678567 -110 103 C-103.67884112 89.00078427 -90.74014957 76.62553633 -80.40283203 65.52050781 C-79.01254219 64.01359428 -77.64236717 62.49074754 -76.27734375 60.9609375 C-69.90985843 53.847845 -63.16545399 47.30463328 -56 41 C-55.46004395 40.52062988 -54.92008789 40.04125977 -54.36376953 39.54736328 C-39.84261786 26.68819452 -24.26940258 15.53466711 -8 5 C-7.26136719 4.50741699 -6.52273438 4.01483398 -5.76171875 3.50732422 C-5.04628906 3.03955566 -4.33085937 2.57178711 -3.59375 2.08984375 C-2.95115234 1.66437256 -2.30855469 1.23890137 -1.64648438 0.80053711 C-1.10314453 0.53635986 -0.55980469 0.27218262 0 0 Z " fill="#030303" transform="translate(321,195)"/>
</svg>
