<svg xmlns="http://www.w3.org/2000/svg" width="1342.667" height="1342.667" version="1.0" viewBox="0 0 1007 1007"><path fill="#FCFCFC" d="M502.75 120.813h2.9c14.543.02 28.898.446 43.35 2.187l2.688.292c15.4 1.683 30.295 4.96 45.312 8.708l3.22.78c70.6 17.21 140.968 58.229 188.663 113.767a416.147 416.147 0 0 0 4.922 5.594c63.875 71.841 94.646 164.319 94.009 279.082-1.686 27.462-6.456 55.931-14.96 82.143-.972 2.998-1.905 6.008-2.842 9.017C865.035 638.086 859.04 653.113 852 668l-1.548 3.279C840.194 692.809 828.147 712.81 814 732l-1.3 1.763c-12.332 16.615-26.302 31.901-40.888 46.55l-2.268 2.282c-23.205 23.138-50.69 42.684-79.462 58.274-1.407.764-2.81 1.536-4.21 2.313C661.77 856.564 636.211 865.76 610 874l-2.78.883c-21.38 6.7-43.981 9.874-66.22 12.117l-2.779.29c-11.008 1.004-22.051.953-33.096.96l-3.216.003c-24.372-.016-48.27-1.638-72.176-6.677a499.784 499.784 0 0 0-5.61-1.148c-14.333-2.862-28.153-6.863-41.998-11.49l-2.32-.774c-14.016-4.7-27.425-10.289-40.743-16.726l-1.905-.92C306.348 835.59 277.547 816.844 252 794l-2.2-1.94c-6.308-5.6-12.352-11.426-18.314-17.389a1214.776 1214.776 0 0 0-4.652-4.612C220.437 763.697 214.615 757.073 209 750a283.841 283.841 0 0 0-2.61-3.066c-28.126-32.797-48.372-71.84-63.348-112.14a471.154 471.154 0 0 0-2.538-6.65c-8.992-23.733-13.894-49.186-17.254-74.269l-.35-2.614c-1.87-15.02-2.137-30.084-2.15-45.198l-.004-2.893c.007-23.866 1.479-47.738 6.254-71.17l.507-2.578c13.184-66.554 44.206-130.006 90.298-180.016a289.29 289.29 0 0 0 5.425-6.152c3.89-4.456 8.015-8.646 12.208-12.816l2.158-2.17c4.637-4.63 9.43-9.006 14.404-13.268l2.957-2.598C289.408 182.664 329.472 159.933 372 144l2.598-.99C405.32 131.353 437.479 125.652 470 122l2.876-.328c9.93-.983 19.906-.87 29.874-.86Z"/><path d="M173.1 2.1C93.9 10.4 26.9 68.2 7 145.5c-6.4 24.7-6 2.8-6 359.3 0 221.3.3 327.5 1.1 333.2 5.5 44.3 24.3 82.8 55.8 114 23.9 23.8 48.9 38.6 81.1 48.3 24 7.3-6.7 6.7 365.4 6.7 284 0 336.3-.2 343.1-1.4 63.1-11.1 115.4-51.1 142.4-108.9 5.5-11.7 9.9-24.5 13.8-40.2l2.8-11 .3-336.5c.2-329.8.2-336.7-1.7-348-8.9-52.4-40.2-99.7-85.6-129.2-24.7-16.1-55.1-26.7-85.4-29.7-12.8-1.4-648.5-1.3-661 0zM552 124c101.7 13.6 188.9 62.6 252.4 141.6 44.3 55.2 72.3 122.4 81.3 195.4 2.5 20.5 2.5 67.7-.1 87.5-11.8 92.2-50.2 169.7-115 232.2-60.3 58.2-133.8 93.4-219.6 105-19 2.5-74.5 2.6-93.5 0-75.7-10.2-142.7-39.5-199.7-87.2-14.3-11.9-39.9-37.9-51-51.5-46-57.1-73.5-121.5-83.5-196-2.2-16.9-2.6-71.3-.5-88 7.1-57.5 24.3-108.7 51.9-154.5 57.3-95.3 149.9-160 258.8-180.9 11-2.1 22.5-3.6 45-6 2.2-.2 16.2-.2 31-.1 20 .3 31 .9 42.5 2.5z"/><path d="M491.9 146c-19.3 2.4-41.4 25.1-58.8 60.4-11.6 23.5-21.6 51.6-29.6 83.4-4.9 19.2-11.3 50.2-11.7 57.2l-.3 4.5 15 1.7c33.3 3.7 47.7 4.3 99 4.3 40.1 0 55.4-.4 71.5-1.8 11.3-1 22-2 23.9-2.4l3.3-.6-.6-5.1c-1.4-10.1-7.7-40.8-12.1-57.8-14.4-56.7-34.9-101.5-57-124.7-14.8-15.5-27.1-21-42.6-19.1zM425.2 158.5c-56.4 20.5-108.5 68.2-144.4 132.3-6 10.7-15.8 30.4-15.8 31.7 0 .9 28.5 9.5 45.5 13.8 15.1 3.8 36.4 8.3 52.5 11.1l3.6.6 2.7-15.3c12.8-71.7 35.4-133.9 61.4-169.2 3.5-4.7 5.7-8.5 5-8.5-.6.1-5.4 1.6-10.5 3.5zM564.3 163.5c25.8 35 47.9 95.7 61.2 167.8 1.4 7.6 2.5 14.7 2.5 15.7s.4 2.1.9 2.4c1 .7 31.1-4.3 47.7-7.9 14.4-3.1 34.7-8.3 46.6-11.9 10-3.1 9.7-1.2 2.6-16.6-9.6-20.5-26.2-47.6-40.4-66.1-26.4-34.3-59.9-62.3-94.9-79.4-11.4-5.5-28.9-12.5-31.6-12.5-.5 0 1.9 3.8 5.4 8.5zM654.7 180.2c20.8 17.7 36.8 34.7 53.2 56.5 16.5 22 31.7 47.6 41.8 70.5 4.5 10.2 4.9 10.8 7.3 10.2 2.8-.6 32.6-14.9 37.8-18.1l3.2-2-7.1-9.4c-11.4-14.9-21.6-26.4-36.5-40.9-20.8-20.3-42-36.5-67.5-51.8-8.8-5.3-33.8-18.2-35.2-18.2-.4 0 .9 1.4 3 3.2zM313.3 200.4c-35.9 22.5-68.3 52.1-94.8 86.6-7.2 9.5-7.6 10.2-5.9 11.5 2.7 2 27.7 14.5 28.9 14.5.6-.1 4.4-7.1 8.7-15.8 16.7-34.4 38.2-65.6 63.8-92.5 5.6-5.9 10-10.7 9.8-10.7-.1 0-4.9 2.9-10.5 6.4zM192.7 325.7c-11.1 19.4-21.5 42.5-28.9 64.3-10 29.6-15.3 57.4-18.2 94.7l-.6 7.3h57.7l.7-3.8c.3-2 .6-6.4.6-9.8 0-16.5 5.4-55.9 11.1-81.4 4.2-18.7 12.7-47.7 17.4-59.2.5-1.3-1.3-2.5-9.2-6.3-5.4-2.5-13.2-6.6-17.5-9-4.2-2.5-7.9-4.5-8.2-4.5-.2 0-2.4 3.5-4.9 7.7zM804.5 321.6c-7.1 4.2-28 14.3-34.8 16.9-2.6 1-4.9 2.1-5.2 2.5-.2.3 1.6 6.9 4.1 14.6 4.7 14.4 11.1 39.1 13.8 52.9 4.5 22.8 8.6 57 8.6 71 0 3.5.3 7.7.6 9.4l.7 3.1h71l-.7-12.3c-2.2-40.2-13.1-83.9-31-123.7-5.2-11.4-19.5-38-20.5-37.9-.3 0-3.3 1.6-6.6 3.5zM249.7 362.7c-12.2 38.1-19.3 76.8-21.3 116l-.7 13.3h127l.6-23.3c.8-29 4.4-75.3 7.3-92.9.5-3.6.5-3.7-3.3-4.3-14.5-2.6-41.3-8.2-54.8-11.7-12.6-3.2-40.7-11.6-48-14.4-.7-.3-3.2 6.1-6.8 17.3zM731.5 352.1c-21.1 6.9-52.3 14.1-83.5 19.4-8.5 1.4-15.5 2.7-15.7 2.8-.1.1.4 5 1.2 10.7 3.2 24.5 6.5 72.5 6.5 94.2V492H767.3l-.7-13.3c-1.9-38.4-9.7-80.6-21.2-115.8-2.5-7.6-4.6-13.9-4.7-13.8-.1.1-4.2 1.4-9.2 3zM386.7 379.6c-2.6 16.1-6.1 61.6-7.3 94.1l-.7 18.3h237.6l-.7-17.8c-1-27.2-2.5-49.8-4.7-71.2-2.7-26.7-2.5-26.2-5.8-25.6-4.9 1-39.5 3.6-61.1 4.6-47.3 2.2-94 .5-150.6-5.6l-6.1-.7-.6 3.9zM145.5 524.2c3.5 44.6 10.3 75.8 24.2 111.3 8.5 21.7 25.8 55.5 28.4 55.5.5 0 2.8-1.2 5-2.6 3.7-2.3 26.1-13.6 28.8-14.5.7-.3-.5-5.2-3.4-13.9-12.9-38.3-21-78.1-23.6-116.5-.5-8.8-1.3-18.4-1.5-21.3l-.5-5.2H145l.5 7.2zM228.4 530.1c1.7 35 7.6 70.4 17.1 103.4 3.8 13.1 9.2 29.4 10 30.3.2.2 7.4-1.9 16-4.7 20-6.5 54.4-15.1 75-18.7 8.8-1.5 16.1-2.8 16.3-2.9.1-.1-.7-7.8-1.7-17.1-3.6-30.9-6.1-67.7-6.1-90.2V517H227.7l.7 13.1zM379 522.7c0 11 2 48.9 3.5 66.8 1.6 18.4 4.3 43.7 4.8 44.2.2.1 5.5-.4 11.8-1.2 33.7-4.2 51.3-5 105.9-5 51.6.1 69.1.8 97.6 4.1l5.1.6.7-3.3c2.3-12.6 6-60.9 7.2-93.7l.7-18.2H379v5.7zM639.7 540.2c-.7 26.1-1.8 42.1-4.8 71.3-1.1 11-2.1 20.8-2.2 21.9-.2 1.6 1.7 2.2 16.3 4.7 28.5 4.8 54.1 10.6 77.4 17.5 6.5 2 12.5 3.8 13.2 4.1 4 1.5 19.7-59.9 23.8-93.7 1.9-14.8 3.6-36.2 3.6-43.6V517H640.3l-.6 23.2zM791.6 522.2c-.2 2.9-1 12.5-1.5 21.3-2.5 36.8-10 74.8-21.7 110.8-2.5 7.6-4.4 14-4.2 14.2.2.1 5.4 2.4 11.5 5 6.2 2.6 16.5 7.6 23 11.1s12.1 6.4 12.5 6.4c.4 0 2.9-3.9 5.6-8.8 24.6-43.6 39.1-88.6 44.7-138.2.8-7.4 1.5-16.5 1.5-20.3V517h-70.9l-.5 5.2zM466 651.7c-23.3.9-73.4 5.4-74.7 6.7-.7.7 3 21.2 7.3 40.7 15.1 68.5 38.1 121.7 63.9 147.4 6.5 6.6 10.1 9.2 17.1 12.6 8.4 4.2 9.1 4.4 17.9 4.4 8.8 0 9.5-.2 17.9-4.4 35.3-17.4 67.3-85.9 85.7-183 3.3-17.6 3.5-20.1 1.4-20.1-.8 0-8.8-.7-17.7-1.5-33.5-3-83.5-4.2-118.8-2.8zM628.5 661.2c-.2.7-1.3 6.7-2.5 13.3-12.9 73.8-35.1 134.9-62.2 171.9-3.2 4.4-5.6 8.1-5.4 8.3.6.6 20.7-7.2 30.6-12 47.9-23 91-64.9 122.5-119.2 7.8-13.4 20.6-39.8 19.7-40.6-3.5-3.1-50.1-14.7-80.3-19.9-19.5-3.4-21.8-3.5-22.4-1.8zM344 665.5c-29 5.8-75.2 18.3-78.1 21.2-1.1 1.1 8.3 20.8 17.6 36.8 31.5 54.6 77.6 99 125.2 120.6 8.9 4.1 27.4 11.1 27.9 10.6.2-.2-1.9-3.4-4.6-7.1-25.1-33-46.6-89.8-60.4-158.8-1.9-9.5-3.7-19.4-4.1-22.1-.7-4.5-.9-4.7-3.9-4.6-1.7 0-10.5 1.6-19.6 3.4zM745.2 711.3c-14.7 29.5-26.1 47.8-44.3 70.7-8.2 10.4-34.2 37.2-44.9 46.4l-5.5 4.7 16-8c49-24.5 91.4-60 125.3-104.8l6.2-8.2-4.5-2.6c-2.5-1.4-6.4-3.6-8.7-4.9-4-2.2-22.5-10.7-27.4-12.7-2-.7-2.9.7-12.2 19.4zM227.3 703c-7.6 3.9-14.3 7.6-15 8.3-1 .9.4 3.4 6.5 11.4 24.5 32.1 55.5 61 88.8 82.6 18.8 12.1 18.9 12.1 6.4-.9-25.9-26.8-47.1-57.5-64-92.7-4.1-8.6-7.8-15.6-8.2-15.6-.3-.1-6.9 3.1-14.5 6.9z"/></svg>